<svg width="216" height="58" viewBox="0 0 216 58" fill="none" xmlns="http://www.w3.org/2000/svg">
<path d="M55.3789 13.7266V16.7852H50.2109V31H46.5781V16.7852H41.3867V13.7266H55.3789ZM61.1797 28.6445C62.1562 28.6445 62.9062 28.2969 63.4297 27.6016C63.9531 26.9062 64.2148 25.918 64.2148 24.6367C64.2148 23.3555 63.9531 22.3711 63.4297 21.6836C62.9062 20.9883 62.1562 20.6406 61.1797 20.6406C60.2031 20.6406 59.4492 20.9883 58.918 21.6836C58.3945 22.3711 58.1328 23.3555 58.1328 24.6367C58.1328 25.918 58.3945 26.9062 58.918 27.6016C59.4492 28.2969 60.2031 28.6445 61.1797 28.6445ZM67.7188 24.6367C67.7188 26.5117 67.1797 28.1172 66.1016 29.4531C65.0234 30.7812 63.3867 31.4453 61.1914 31.4453C58.9961 31.4453 57.3594 30.7812 56.2812 29.4531C55.2031 28.1172 54.6641 26.5117 54.6641 24.6367C54.6641 22.793 55.2031 21.1953 56.2812 19.8438C57.3594 18.4922 58.9961 17.8164 61.1914 17.8164C63.3867 17.8164 65.0234 18.4922 66.1016 19.8438C67.1797 21.1953 67.7188 22.793 67.7188 24.6367ZM72.7227 26.9219C72.793 27.5156 72.9453 27.9375 73.1797 28.1875C73.5938 28.6328 74.3594 28.8555 75.4766 28.8555C76.1328 28.8555 76.6523 28.7578 77.0352 28.5625C77.4258 28.3672 77.6211 28.0742 77.6211 27.6836C77.6211 27.3086 77.4648 27.0234 77.1523 26.8281C76.8398 26.6328 75.6797 26.2969 73.6719 25.8203C72.2266 25.4609 71.207 25.0117 70.6133 24.4727C70.0195 23.9414 69.7227 23.1758 69.7227 22.1758C69.7227 20.9961 70.1836 19.9844 71.1055 19.1406C72.0352 18.2891 73.3398 17.8633 75.0195 17.8633C76.6133 17.8633 77.9102 18.1836 78.9102 18.8242C79.918 19.457 80.4961 20.5547 80.6445 22.1172H77.3047C77.2578 21.6875 77.1367 21.3477 76.9414 21.0977C76.5742 20.6445 75.9492 20.418 75.0664 20.418C74.3398 20.418 73.8203 20.5312 73.5078 20.7578C73.2031 20.9844 73.0508 21.25 73.0508 21.5547C73.0508 21.9375 73.2148 22.2148 73.543 22.3867C73.8711 22.5664 75.0312 22.875 77.0234 23.3125C78.3516 23.625 79.3477 24.0977 80.0117 24.7305C80.668 25.3711 80.9961 26.1719 80.9961 27.1328C80.9961 28.3984 80.5234 29.4336 79.5781 30.2383C78.6406 31.0352 77.1875 31.4336 75.2188 31.4336C73.2109 31.4336 71.7266 31.0117 70.7656 30.168C69.8125 29.3164 69.3359 28.2344 69.3359 26.9219H72.7227ZM92.2812 24.6133C92.2812 23.6289 92.0547 22.7578 91.6016 22C91.1562 21.2422 90.4297 20.8633 89.4219 20.8633C88.2109 20.8633 87.3789 21.4375 86.9258 22.5859C86.6914 23.1953 86.5742 23.9688 86.5742 24.9062C86.5742 26.3906 86.9688 27.4336 87.7578 28.0352C88.2266 28.3867 88.7812 28.5625 89.4219 28.5625C90.3516 28.5625 91.0586 28.2031 91.543 27.4844C92.0352 26.7656 92.2812 25.8086 92.2812 24.6133ZM90.3828 17.9453C91.875 17.9453 93.1367 18.4961 94.168 19.5977C95.207 20.6992 95.7266 22.3164 95.7266 24.4492C95.7266 26.6992 95.2188 28.4141 94.2031 29.5938C93.1953 30.7734 91.8945 31.3633 90.3008 31.3633C89.2852 31.3633 88.4414 31.1094 87.7695 30.6016C87.4023 30.3203 87.043 29.9102 86.6914 29.3711V36.0273H83.3867V18.2266H86.5859V20.1133C86.9453 19.5586 87.3281 19.1211 87.7344 18.8008C88.4766 18.2305 89.3594 17.9453 90.3828 17.9453ZM101.562 31H98.2227V13.7266H101.562V31ZM111.875 24.7891C111.664 24.9219 111.449 25.0312 111.23 25.1172C111.02 25.1953 110.727 25.2695 110.352 25.3398L109.602 25.4805C108.898 25.6055 108.395 25.7578 108.09 25.9375C107.574 26.2422 107.316 26.7148 107.316 27.3555C107.316 27.9258 107.473 28.3398 107.785 28.5977C108.105 28.8477 108.492 28.9727 108.945 28.9727C109.664 28.9727 110.324 28.7617 110.926 28.3398C111.535 27.918 111.852 27.1484 111.875 26.0312V24.7891ZM109.848 23.2305C110.465 23.1523 110.906 23.0547 111.172 22.9375C111.648 22.7344 111.887 22.418 111.887 21.9883C111.887 21.4648 111.703 21.1055 111.336 20.9102C110.977 20.707 110.445 20.6055 109.742 20.6055C108.953 20.6055 108.395 20.8008 108.066 21.1914C107.832 21.4805 107.676 21.8711 107.598 22.3633H104.375C104.445 21.2461 104.758 20.3281 105.312 19.6094C106.195 18.4844 107.711 17.9219 109.859 17.9219C111.258 17.9219 112.5 18.1992 113.586 18.7539C114.672 19.3086 115.215 20.3555 115.215 21.8945V27.7539C115.215 28.1602 115.223 28.6523 115.238 29.2305C115.262 29.668 115.328 29.9648 115.438 30.1211C115.547 30.2773 115.711 30.4062 115.93 30.5078V31H112.297C112.195 30.7422 112.125 30.5 112.086 30.2734C112.047 30.0469 112.016 29.7891 111.992 29.5C111.531 30 111 30.4258 110.398 30.7773C109.68 31.1914 108.867 31.3984 107.961 31.3984C106.805 31.3984 105.848 31.0703 105.09 30.4141C104.34 29.75 103.965 28.8125 103.965 27.6016C103.965 26.0312 104.57 24.8945 105.781 24.1914C106.445 23.8086 107.422 23.5352 108.711 23.3711L109.848 23.2305ZM120.793 26.9219C120.863 27.5156 121.016 27.9375 121.25 28.1875C121.664 28.6328 122.43 28.8555 123.547 28.8555C124.203 28.8555 124.723 28.7578 125.105 28.5625C125.496 28.3672 125.691 28.0742 125.691 27.6836C125.691 27.3086 125.535 27.0234 125.223 26.8281C124.91 26.6328 123.75 26.2969 121.742 25.8203C120.297 25.4609 119.277 25.0117 118.684 24.4727C118.09 23.9414 117.793 23.1758 117.793 22.1758C117.793 20.9961 118.254 19.9844 119.176 19.1406C120.105 18.2891 121.41 17.8633 123.09 17.8633C124.684 17.8633 125.98 18.1836 126.98 18.8242C127.988 19.457 128.566 20.5547 128.715 22.1172H125.375C125.328 21.6875 125.207 21.3477 125.012 21.0977C124.645 20.6445 124.02 20.418 123.137 20.418C122.41 20.418 121.891 20.5312 121.578 20.7578C121.273 20.9844 121.121 21.25 121.121 21.5547C121.121 21.9375 121.285 22.2148 121.613 22.3867C121.941 22.5664 123.102 22.875 125.094 23.3125C126.422 23.625 127.418 24.0977 128.082 24.7305C128.738 25.3711 129.066 26.1719 129.066 27.1328C129.066 28.3984 128.594 29.4336 127.648 30.2383C126.711 31.0352 125.258 31.4336 123.289 31.4336C121.281 31.4336 119.797 31.0117 118.836 30.168C117.883 29.3164 117.406 28.2344 117.406 26.9219H120.793ZM138.594 17.8984C139.383 17.8984 140.098 18.0352 140.738 18.3086C141.387 18.582 141.918 19 142.332 19.5625C142.684 20.0391 142.898 20.5312 142.977 21.0391C143.055 21.5391 143.094 22.3594 143.094 23.5V31H139.684V23.2305C139.684 22.543 139.566 21.9883 139.332 21.5664C139.027 20.9727 138.449 20.6758 137.598 20.6758C136.715 20.6758 136.043 20.9727 135.582 21.5664C135.129 22.1523 134.902 22.9922 134.902 24.0859V31H131.574V13.7852H134.902V19.8906C135.387 19.1484 135.945 18.6328 136.578 18.3438C137.219 18.0469 137.891 17.8984 138.594 17.8984Z" fill="black"/>
<path d="M34.749 12.2559V19.6475H22.2598V54H13.4805V19.6475H0.93457V12.2559H34.749Z" fill="black"/>
<path d="M42.5381 41.0889H48.3477C49.4961 41.0889 50.4219 41.4141 51.125 42.0645C51.8281 42.709 52.1797 43.6172 52.1797 44.7891C52.1797 45.7969 51.8662 46.6758 51.2393 47.4258C50.6123 48.1699 49.6484 48.542 48.3477 48.542H44.2871V54H42.5381V41.0889ZM50.4131 44.7979C50.4131 43.8486 50.0615 43.2041 49.3584 42.8643C48.9717 42.6826 48.4414 42.5918 47.7676 42.5918H44.2871V47.0654H47.7676C48.5527 47.0654 49.1885 46.8984 49.6748 46.5645C50.167 46.2305 50.4131 45.6416 50.4131 44.7979ZM54.166 41.0449H55.748V45.8613C56.123 45.3867 56.46 45.0527 56.7588 44.8594C57.2686 44.5254 57.9043 44.3584 58.666 44.3584C60.0312 44.3584 60.957 44.8359 61.4434 45.791C61.707 46.3125 61.8389 47.0361 61.8389 47.9619V54H60.2129V48.0674C60.2129 47.376 60.125 46.8691 59.9492 46.5469C59.6621 46.0312 59.123 45.7734 58.332 45.7734C57.6758 45.7734 57.0811 45.999 56.5479 46.4502C56.0146 46.9014 55.748 47.7539 55.748 49.0078V54H54.166V41.0449ZM67.9209 52.9805C68.9697 52.9805 69.6875 52.585 70.0742 51.7939C70.4668 50.9971 70.6631 50.1123 70.6631 49.1396C70.6631 48.2607 70.5225 47.5459 70.2412 46.9951C69.7959 46.1279 69.0283 45.6943 67.9385 45.6943C66.9717 45.6943 66.2686 46.0635 65.8291 46.8018C65.3896 47.54 65.1699 48.4307 65.1699 49.4736C65.1699 50.4756 65.3896 51.3105 65.8291 51.9785C66.2686 52.6465 66.9658 52.9805 67.9209 52.9805ZM67.9824 44.3145C69.1953 44.3145 70.2207 44.7188 71.0586 45.5273C71.8965 46.3359 72.3154 47.5254 72.3154 49.0957C72.3154 50.6133 71.9463 51.8672 71.208 52.8574C70.4697 53.8477 69.3242 54.3428 67.7715 54.3428C66.4766 54.3428 65.4482 53.9062 64.6865 53.0332C63.9248 52.1543 63.5439 50.9766 63.5439 49.5C63.5439 47.918 63.9453 46.6582 64.748 45.7207C65.5508 44.7832 66.6289 44.3145 67.9824 44.3145ZM74.5215 41.959H76.1211V44.5869H77.624V45.8789H76.1211V52.0225C76.1211 52.3506 76.2324 52.5703 76.4551 52.6816C76.5781 52.7461 76.7832 52.7783 77.0703 52.7783C77.1465 52.7783 77.2285 52.7783 77.3164 52.7783C77.4043 52.7725 77.5068 52.7637 77.624 52.752V54C77.4424 54.0527 77.252 54.0908 77.0527 54.1143C76.8594 54.1377 76.6484 54.1494 76.4199 54.1494C75.6816 54.1494 75.1807 53.9619 74.917 53.5869C74.6533 53.2061 74.5215 52.7139 74.5215 52.1104V45.8789H73.2471V44.5869H74.5215V41.959ZM82.9502 52.9805C83.999 52.9805 84.7168 52.585 85.1035 51.7939C85.4961 50.9971 85.6924 50.1123 85.6924 49.1396C85.6924 48.2607 85.5518 47.5459 85.2705 46.9951C84.8252 46.1279 84.0576 45.6943 82.9678 45.6943C82.001 45.6943 81.2979 46.0635 80.8584 46.8018C80.4189 47.54 80.1992 48.4307 80.1992 49.4736C80.1992 50.4756 80.4189 51.3105 80.8584 51.9785C81.2979 52.6465 81.9951 52.9805 82.9502 52.9805ZM83.0117 44.3145C84.2246 44.3145 85.25 44.7188 86.0879 45.5273C86.9258 46.3359 87.3447 47.5254 87.3447 49.0957C87.3447 50.6133 86.9756 51.8672 86.2373 52.8574C85.499 53.8477 84.3535 54.3428 82.8008 54.3428C81.5059 54.3428 80.4775 53.9062 79.7158 53.0332C78.9541 52.1543 78.5732 50.9766 78.5732 49.5C78.5732 47.918 78.9746 46.6582 79.7773 45.7207C80.5801 44.7832 81.6582 44.3145 83.0117 44.3145ZM90.1748 51.0469C90.2217 51.5742 90.3535 51.9785 90.5703 52.2598C90.9688 52.7695 91.6602 53.0244 92.6445 53.0244C93.2305 53.0244 93.7461 52.8984 94.1914 52.6465C94.6367 52.3887 94.8594 51.9932 94.8594 51.46C94.8594 51.0557 94.6807 50.748 94.3232 50.5371C94.0947 50.4082 93.6436 50.2588 92.9697 50.0889L91.7129 49.7725C90.9102 49.5732 90.3184 49.3506 89.9375 49.1045C89.2578 48.6768 88.918 48.085 88.918 47.3291C88.918 46.4385 89.2373 45.7178 89.876 45.167C90.5205 44.6162 91.3848 44.3408 92.4688 44.3408C93.8867 44.3408 94.9092 44.7568 95.5361 45.5889C95.9287 46.1162 96.1191 46.6846 96.1074 47.2939H94.6133C94.584 46.9365 94.458 46.6113 94.2354 46.3184C93.8721 45.9023 93.2422 45.6943 92.3457 45.6943C91.748 45.6943 91.2939 45.8086 90.9834 46.0371C90.6787 46.2656 90.5264 46.5674 90.5264 46.9424C90.5264 47.3525 90.7285 47.6807 91.1328 47.9268C91.3672 48.0732 91.7129 48.2021 92.1699 48.3135L93.2158 48.5684C94.3525 48.8438 95.1143 49.1104 95.501 49.3682C96.1162 49.7725 96.4238 50.4082 96.4238 51.2754C96.4238 52.1133 96.1045 52.8369 95.4658 53.4463C94.833 54.0557 93.8662 54.3604 92.5654 54.3604C91.165 54.3604 90.1719 54.0439 89.5859 53.4111C89.0059 52.7725 88.6953 51.9844 88.6543 51.0469H90.1748ZM103.64 43.1543C103.663 42.498 103.777 42.0176 103.982 41.7129C104.352 41.1738 105.063 40.9043 106.118 40.9043C106.218 40.9043 106.32 40.9072 106.426 40.9131C106.531 40.9189 106.651 40.9277 106.786 40.9395V42.3809C106.622 42.3691 106.502 42.3633 106.426 42.3633C106.355 42.3574 106.288 42.3545 106.224 42.3545C105.743 42.3545 105.456 42.4805 105.362 42.7324C105.269 42.9785 105.222 43.6113 105.222 44.6309H106.786V45.8789H105.204V54H103.64V45.8789H102.33V44.6309H103.64V43.1543ZM111.989 52.9805C113.038 52.9805 113.756 52.585 114.143 51.7939C114.535 50.9971 114.731 50.1123 114.731 49.1396C114.731 48.2607 114.591 47.5459 114.31 46.9951C113.864 46.1279 113.097 45.6943 112.007 45.6943C111.04 45.6943 110.337 46.0635 109.897 46.8018C109.458 47.54 109.238 48.4307 109.238 49.4736C109.238 50.4756 109.458 51.3105 109.897 51.9785C110.337 52.6465 111.034 52.9805 111.989 52.9805ZM112.051 44.3145C113.264 44.3145 114.289 44.7188 115.127 45.5273C115.965 46.3359 116.384 47.5254 116.384 49.0957C116.384 50.6133 116.015 51.8672 115.276 52.8574C114.538 53.8477 113.393 54.3428 111.84 54.3428C110.545 54.3428 109.517 53.9062 108.755 53.0332C107.993 52.1543 107.612 50.9766 107.612 49.5C107.612 47.918 108.014 46.6582 108.816 45.7207C109.619 44.7832 110.697 44.3145 112.051 44.3145ZM118.317 44.5869H119.82V46.2129C119.943 45.8965 120.245 45.5127 120.726 45.0615C121.206 44.6045 121.76 44.376 122.387 44.376C122.416 44.376 122.466 44.3789 122.536 44.3848C122.606 44.3906 122.727 44.4023 122.896 44.4199V46.0898C122.803 46.0723 122.715 46.0605 122.633 46.0547C122.557 46.0488 122.472 46.0459 122.378 46.0459C121.581 46.0459 120.969 46.3037 120.541 46.8193C120.113 47.3291 119.899 47.918 119.899 48.5859V54H118.317V44.5869ZM133.197 44.376C133.865 44.376 134.513 44.5342 135.14 44.8506C135.767 45.1611 136.244 45.5654 136.572 46.0635C136.889 46.5381 137.1 47.0918 137.205 47.7246C137.299 48.1582 137.346 48.8496 137.346 49.7988H130.446C130.476 50.7539 130.701 51.5215 131.123 52.1016C131.545 52.6758 132.198 52.9629 133.083 52.9629C133.909 52.9629 134.568 52.6904 135.061 52.1455C135.342 51.8291 135.541 51.4629 135.658 51.0469H137.214C137.173 51.3926 137.035 51.7793 136.801 52.207C136.572 52.6289 136.314 52.9746 136.027 53.2441C135.547 53.7129 134.952 54.0293 134.243 54.1934C133.862 54.2871 133.432 54.334 132.951 54.334C131.779 54.334 130.786 53.9092 129.972 53.0596C129.157 52.2041 128.75 51.0088 128.75 49.4736C128.75 47.9619 129.16 46.7344 129.98 45.791C130.801 44.8477 131.873 44.376 133.197 44.376ZM135.72 48.542C135.655 47.8564 135.506 47.3086 135.271 46.8984C134.838 46.1367 134.114 45.7559 133.101 45.7559C132.374 45.7559 131.765 46.0195 131.272 46.5469C130.78 47.0684 130.52 47.7334 130.49 48.542H135.72ZM140.07 44.5869L142.584 52.251L145.212 44.5869H146.943L143.393 54H141.705L138.233 44.5869H140.07ZM152.217 44.376C152.885 44.376 153.532 44.5342 154.159 44.8506C154.786 45.1611 155.264 45.5654 155.592 46.0635C155.908 46.5381 156.119 47.0918 156.225 47.7246C156.318 48.1582 156.365 48.8496 156.365 49.7988H149.466C149.495 50.7539 149.721 51.5215 150.143 52.1016C150.564 52.6758 151.218 52.9629 152.103 52.9629C152.929 52.9629 153.588 52.6904 154.08 52.1455C154.361 51.8291 154.561 51.4629 154.678 51.0469H156.233C156.192 51.3926 156.055 51.7793 155.82 52.207C155.592 52.6289 155.334 52.9746 155.047 53.2441C154.566 53.7129 153.972 54.0293 153.263 54.1934C152.882 54.2871 152.451 54.334 151.971 54.334C150.799 54.334 149.806 53.9092 148.991 53.0596C148.177 52.2041 147.77 51.0088 147.77 49.4736C147.77 47.9619 148.18 46.7344 149 45.791C149.82 44.8477 150.893 44.376 152.217 44.376ZM154.739 48.542C154.675 47.8564 154.525 47.3086 154.291 46.8984C153.857 46.1367 153.134 45.7559 152.12 45.7559C151.394 45.7559 150.784 46.0195 150.292 46.5469C149.8 47.0684 149.539 47.7334 149.51 48.542H154.739ZM158.36 44.5869H159.863V46.2129C159.986 45.8965 160.288 45.5127 160.769 45.0615C161.249 44.6045 161.803 44.376 162.43 44.376C162.459 44.376 162.509 44.3789 162.579 44.3848C162.649 44.3906 162.77 44.4023 162.939 44.4199V46.0898C162.846 46.0723 162.758 46.0605 162.676 46.0547C162.6 46.0488 162.515 46.0459 162.421 46.0459C161.624 46.0459 161.012 46.3037 160.584 46.8193C160.156 47.3291 159.942 47.918 159.942 48.5859V54H158.36V44.5869ZM170.19 44.5869H171.939C171.717 45.1904 171.222 46.5674 170.454 48.7178C169.88 50.335 169.399 51.6533 169.013 52.6729C168.099 55.0752 167.454 56.54 167.079 57.0674C166.704 57.5947 166.06 57.8584 165.146 57.8584C164.923 57.8584 164.75 57.8496 164.627 57.832C164.51 57.8145 164.363 57.7822 164.188 57.7354V56.2939C164.463 56.3701 164.662 56.417 164.785 56.4346C164.908 56.4521 165.017 56.4609 165.11 56.4609C165.403 56.4609 165.617 56.4111 165.752 56.3115C165.893 56.2178 166.01 56.1006 166.104 55.96C166.133 55.9131 166.238 55.6729 166.42 55.2393C166.602 54.8057 166.733 54.4834 166.815 54.2725L163.335 44.5869H165.128L167.65 52.251L170.19 44.5869ZM177.046 52.9805C178.095 52.9805 178.812 52.585 179.199 51.7939C179.592 50.9971 179.788 50.1123 179.788 49.1396C179.788 48.2607 179.647 47.5459 179.366 46.9951C178.921 46.1279 178.153 45.6943 177.063 45.6943C176.097 45.6943 175.394 46.0635 174.954 46.8018C174.515 47.54 174.295 48.4307 174.295 49.4736C174.295 50.4756 174.515 51.3105 174.954 51.9785C175.394 52.6465 176.091 52.9805 177.046 52.9805ZM177.107 44.3145C178.32 44.3145 179.346 44.7188 180.184 45.5273C181.021 46.3359 181.44 47.5254 181.44 49.0957C181.44 50.6133 181.071 51.8672 180.333 52.8574C179.595 53.8477 178.449 54.3428 176.896 54.3428C175.602 54.3428 174.573 53.9062 173.812 53.0332C173.05 52.1543 172.669 50.9766 172.669 49.5C172.669 47.918 173.07 46.6582 173.873 45.7207C174.676 44.7832 175.754 44.3145 177.107 44.3145ZM183.33 44.5869H184.833V45.9229C185.278 45.3721 185.75 44.9766 186.248 44.7363C186.746 44.4961 187.3 44.376 187.909 44.376C189.245 44.376 190.147 44.8418 190.616 45.7734C190.874 46.2832 191.003 47.0127 191.003 47.9619V54H189.395V48.0674C189.395 47.4932 189.31 47.0303 189.14 46.6787C188.858 46.0928 188.349 45.7998 187.61 45.7998C187.235 45.7998 186.928 45.8379 186.688 45.9141C186.254 46.043 185.873 46.3008 185.545 46.6875C185.281 46.998 185.108 47.3203 185.026 47.6543C184.95 47.9824 184.912 48.4541 184.912 49.0693V54H183.33V44.5869ZM197.27 44.376C197.938 44.376 198.585 44.5342 199.212 44.8506C199.839 45.1611 200.316 45.5654 200.645 46.0635C200.961 46.5381 201.172 47.0918 201.277 47.7246C201.371 48.1582 201.418 48.8496 201.418 49.7988H194.519C194.548 50.7539 194.773 51.5215 195.195 52.1016C195.617 52.6758 196.271 52.9629 197.155 52.9629C197.981 52.9629 198.641 52.6904 199.133 52.1455C199.414 51.8291 199.613 51.4629 199.73 51.0469H201.286C201.245 51.3926 201.107 51.7793 200.873 52.207C200.645 52.6289 200.387 52.9746 200.1 53.2441C199.619 53.7129 199.024 54.0293 198.315 54.1934C197.935 54.2871 197.504 54.334 197.023 54.334C195.852 54.334 194.858 53.9092 194.044 53.0596C193.229 52.2041 192.822 51.0088 192.822 49.4736C192.822 47.9619 193.232 46.7344 194.053 45.791C194.873 44.8477 195.945 44.376 197.27 44.376ZM199.792 48.542C199.728 47.8564 199.578 47.3086 199.344 46.8984C198.91 46.1367 198.187 45.7559 197.173 45.7559C196.446 45.7559 195.837 46.0195 195.345 46.5469C194.853 47.0684 194.592 47.7334 194.562 48.542H199.792Z" fill="black"/>
</svg>
